<?xml version="1.0" encoding="utf-8" standalone="no"?>
<!DOCTYPE svg PUBLIC "-//W3C//DTD SVG 1.1//EN"
  "http://www.w3.org/Graphics/SVG/1.1/DTD/svg11.dtd">
<svg xmlns:xlink="http://www.w3.org/1999/xlink" width="460.8pt" height="345.6pt" viewBox="0 0 460.8 345.6" xmlns="http://www.w3.org/2000/svg" version="1.1">
 <metadata>
  <rdf:RDF xmlns:dc="http://purl.org/dc/elements/1.1/" xmlns:cc="http://creativecommons.org/ns#" xmlns:rdf="http://www.w3.org/1999/02/22-rdf-syntax-ns#">
   <cc:Work>
    <dc:type rdf:resource="http://purl.org/dc/dcmitype/StillImage"/>
    <dc:date>2023-09-10T21:31:22.768799</dc:date>
    <dc:format>image/svg+xml</dc:format>
    <dc:creator>
     <cc:Agent>
      <dc:title>Matplotlib v3.7.2, https://matplotlib.org/</dc:title>
     </cc:Agent>
    </dc:creator>
   </cc:Work>
  </rdf:RDF>
 </metadata>
 <defs>
  <style type="text/css">*{stroke-linejoin: round; stroke-linecap: butt}</style>
 </defs>
 <g id="figure_1">
  <g id="axes_1">
   <g id="line2d_1">
    <path d="M 73.832727 142.727697 
L 74.483338 81.382987 
L 75.133948 119.202374 
L 75.784558 99.523186 
L 76.435169 259.937141 
L 77.085779 98.168555 
L 77.736389 157.546172 
L 78.386999 120.65307 
L 79.03761 265.967276 
L 80.33883 168.848242 
L 80.989441 292.382089 
L 81.640051 73.187192 
L 82.290661 106.051379 
L 82.941272 244.667122 
L 83.591882 143.374772 
L 84.242492 267.118845 
L 84.893103 135.427702 
L 85.543713 251.102286 
L 86.194323 71.902515 
L 86.844934 90.506767 
L 87.495544 143.907686 
L 88.146154 175.481974 
L 88.796764 236.904653 
L 89.447375 199.04944 
L 90.097985 104.011661 
L 90.748595 228.27881 
L 91.399206 149.387418 
L 92.049816 222.653097 
L 92.700426 208.912594 
L 93.351037 68.195073 
L 94.001647 167.685742 
L 94.652257 199.285899 
L 95.302868 146.128848 
L 95.953478 60.510331 
L 96.604088 155.410631 
L 97.254698 183.643035 
L 97.905309 176.903644 
L 98.555919 172.047668 
L 99.206529 153.854639 
L 99.85714 244.805694 
L 100.50775 202.930431 
L 101.15836 194.025501 
L 101.808971 165.161325 
L 102.459581 125.69984 
L 103.110191 209.301835 
L 103.760802 195.282609 
L 104.411412 171.155875 
L 105.062022 262.055922 
L 105.712633 86.742973 
L 106.363243 56.735363 
L 107.013853 89.67084 
L 107.664463 136.862367 
L 108.315074 272.453934 
L 108.965684 292.689596 
L 109.616294 220.064919 
L 110.266905 241.857545 
L 110.917515 121.36099 
L 111.568125 72.458869 
L 112.218736 223.008697 
L 112.869346 268.545616 
L 113.519956 96.26328 
L 114.170567 63.345291 
L 114.821177 123.088587 
L 115.471787 93.416296 
L 116.122398 126.45379 
L 116.773008 194.739737 
L 117.423618 53.568 
L 118.074228 103.085863 
L 118.724839 128.726324 
L 119.375449 245.9167 
L 120.026059 98.850486 
L 120.67667 274.205213 
L 121.32728 77.375811 
L 121.97789 189.628477 
L 122.628501 89.550728 
L 123.279111 177.980523 
L 123.929721 110.837523 
L 124.580332 227.959524 
L 125.230942 132.678727 
L 125.881552 164.305845 
L 126.532163 136.071012 
L 127.182773 151.645258 
L 127.833383 287.218 
L 128.483993 79.846549 
L 129.134604 176.875104 
L 129.785214 98.829961 
L 130.435824 279.911325 
L 131.086435 235.145479 
L 131.737045 254.181357 
L 132.387655 268.128321 
L 133.038266 78.511836 
L 133.688876 160.268793 
L 134.339486 285.601406 
L 134.990097 173.675071 
L 135.640707 283.234749 
L 136.291317 207.140183 
L 136.941927 255.573879 
L 137.592538 84.43959 
L 138.243148 129.767255 
L 138.893758 282.572615 
L 139.544369 242.984582 
L 140.194979 109.500988 
L 140.845589 138.066038 
L 141.4962 237.246529 
L 142.14681 152.384876 
L 142.79742 213.796989 
L 143.448031 207.042903 
L 144.098641 141.579406 
L 144.749251 103.426646 
L 145.399862 128.479542 
L 146.050472 230.907552 
L 146.701082 242.488467 
L 147.351692 104.210957 
L 148.002303 56.296693 
L 148.652913 220.283769 
L 149.303523 67.169809 
L 149.954134 273.441184 
L 150.604744 269.536632 
L 151.255354 282.831542 
L 151.905965 99.345629 
L 152.556575 71.86596 
L 153.207185 200.668463 
L 153.857796 84.635607 
L 154.508406 122.945036 
L 155.159016 188.875864 
L 155.809627 201.214493 
L 156.460237 132.030073 
L 157.110847 155.321852 
L 157.761457 54.263654 
L 158.412068 210.138976 
L 159.062678 268.004444 
L 159.713288 191.646214 
L 160.363899 98.61682 
L 161.014509 209.954375 
L 161.665119 72.261759 
L 162.31573 262.844241 
L 162.96634 137.40196 
L 163.61695 118.297465 
L 164.267561 109.815781 
L 164.918171 135.36965 
L 165.568781 256.827465 
L 166.219392 280.370884 
L 166.870002 74.778768 
L 167.520612 211.292975 
L 168.171222 76.680765 
L 168.821833 268.358829 
L 169.472443 223.695364 
L 170.123053 134.130152 
L 170.773664 191.958942 
L 171.424274 213.779015 
L 172.074884 98.133336 
L 172.725495 277.766797 
L 173.376105 112.433349 
L 174.026715 232.768742 
L 174.677326 73.732615 
L 175.327936 100.657875 
L 175.978546 257.329774 
L 176.629156 56.518457 
L 177.279767 173.644345 
L 177.930377 214.679309 
L 178.580987 89.83516 
L 179.231598 70.94004 
L 179.882208 92.476046 
L 180.532818 62.432974 
L 181.183429 85.910932 
L 181.834039 185.159435 
L 182.484649 154.9501 
L 183.13526 78.111786 
L 183.78587 88.836371 
L 184.43648 254.002099 
L 185.087091 292.306549 
L 185.737701 82.497637 
L 186.388311 148.987612 
L 187.038921 124.609116 
L 187.689532 170.101828 
L 188.340142 84.493027 
L 188.990752 69.544117 
L 189.641363 141.463302 
L 190.291973 140.039203 
L 190.942583 90.090443 
L 191.593194 250.201506 
L 192.243804 95.738017 
L 192.894414 96.279554 
L 193.545025 114.61917 
L 194.195635 86.007241 
L 194.846245 209.036714 
L 195.496856 107.741935 
L 196.147466 83.962543 
L 196.798076 77.614578 
L 197.448686 287.271194 
L 198.099297 232.435003 
L 198.749907 152.583686 
L 199.400517 96.995004 
L 200.051128 57.025017 
L 200.701738 76.644695 
L 201.352348 204.408939 
L 202.002959 115.542539 
L 202.653569 199.700887 
L 203.304179 72.762731 
L 203.95479 191.679855 
L 204.6054 98.5397 
L 205.25601 203.736846 
L 206.557231 282.871255 
L 207.207841 231.828735 
L 207.858451 211.236623 
L 208.509062 252.259199 
L 209.159672 75.510006 
L 209.810282 173.052771 
L 210.460893 182.297756 
L 211.111503 58.575179 
L 211.762113 76.467138 
L 212.412724 128.309029 
L 213.063334 206.674187 
L 213.713944 242.640398 
L 214.364555 129.513914 
L 215.015165 102.841145 
L 215.665775 280.811012 
L 216.966996 100.97036 
L 217.617606 272.830665 
L 218.268216 205.586499 
L 218.918827 192.371258 
L 219.569437 156.95302 
L 220.220047 267.399512 
L 220.870658 209.743541 
L 221.521268 285.057805 
L 222.171878 123.109477 
L 222.822489 184.496693 
L 223.473099 59.489439 
L 224.123709 104.84613 
L 224.77432 90.46596 
L 225.42493 235.538728 
L 226.72615 81.820807 
L 228.027371 249.375903 
L 228.677981 222.867574 
L 229.328592 219.848256 
L 229.979202 109.519569 
L 230.629812 246.329016 
L 231.280423 281.080505 
L 231.931033 143.179605 
L 233.232254 64.344201 
L 233.882864 173.73033 
L 234.533474 194.988584 
L 235.184085 194.858392 
L 235.834695 96.796558 
L 236.485305 266.965578 
L 237.135915 201.681825 
L 237.786526 216.783516 
L 238.437136 220.023263 
L 239.087746 103.461258 
L 239.738357 134.914341 
L 240.388967 287.423368 
L 241.039577 56.025014 
L 241.690188 66.806801 
L 242.340798 166.843986 
L 242.991408 285.957127 
L 243.642019 178.770785 
L 244.292629 291.977789 
L 245.59385 212.399366 
L 246.24446 235.995251 
L 246.89507 165.117968 
L 247.54568 141.520747 
L 248.196291 82.618964 
L 248.846901 102.462227 
L 249.497511 144.577471 
L 250.148122 119.949764 
L 250.798732 123.551061 
L 251.449342 142.085359 
L 252.099953 186.075881 
L 252.750563 88.27176 
L 253.401173 107.537052 
L 254.051784 284.712164 
L 255.353004 57.385839 
L 256.003615 228.458311 
L 256.654225 244.602512 
L 257.304835 251.400319 
L 257.955445 119.129505 
L 258.606056 89.386895 
L 259.256666 264.516944 
L 259.907276 272.211888 
L 260.557887 243.524661 
L 261.208497 151.716669 
L 261.859107 149.31455 
L 262.509718 201.066934 
L 263.810938 70.160587 
L 264.461549 234.571759 
L 265.112159 249.545809 
L 265.762769 152.290268 
L 266.413379 139.297763 
L 267.06399 133.947494 
L 267.7146 276.374639 
L 268.36521 204.245956 
L 269.015821 79.32238 
L 269.666431 245.750802 
L 270.317041 272.661974 
L 270.967652 66.64151 
L 271.618262 249.931406 
L 272.268872 252.222158 
L 272.919483 194.972917 
L 273.570093 197.998915 
L 274.220703 235.05075 
L 274.871314 223.298958 
L 275.521924 129.823485 
L 276.172534 137.196956 
L 276.823144 189.221019 
L 277.473755 130.154674 
L 278.124365 185.286955 
L 278.774975 77.399251 
L 279.425586 204.651956 
L 280.076196 95.575277 
L 280.726806 279.061189 
L 281.377417 258.855282 
L 282.678637 117.071083 
L 283.329248 112.952418 
L 283.979858 141.729516 
L 284.630468 229.229627 
L 285.281079 96.298014 
L 285.931689 146.830696 
L 286.582299 219.620906 
L 287.232909 95.886669 
L 287.88352 281.073461 
L 288.53413 188.956748 
L 289.18474 222.592373 
L 289.835351 143.221747 
L 290.485961 283.205602 
L 291.136571 175.989869 
L 291.787182 269.532988 
L 292.437792 285.988461 
L 293.088402 255.448545 
L 293.739013 98.443999 
L 294.389623 151.321356 
L 295.040233 184.975927 
L 295.690844 291.679391 
L 296.341454 108.569117 
L 296.992064 177.419555 
L 297.642674 227.856657 
L 298.293285 119.007814 
L 298.943895 176.262399 
L 299.594505 88.600276 
L 300.245116 260.449408 
L 300.895726 132.949435 
L 301.546336 227.768486 
L 302.196947 252.873605 
L 302.847557 190.081721 
L 303.498167 165.387096 
L 304.148778 92.674492 
L 304.799388 275.31792 
L 305.449998 97.473144 
L 306.100608 271.08145 
L 306.751219 125.996659 
L 307.401829 147.696741 
L 308.052439 120.900338 
L 308.70305 182.841843 
L 309.35366 187.792912 
L 310.00427 96.565442 
L 310.654881 286.944013 
L 311.305491 266.377405 
L 311.956101 164.168123 
L 312.606712 139.119235 
L 313.257322 141.993908 
L 313.907932 277.89626 
L 314.558543 76.619312 
L 315.209153 224.048292 
L 315.859763 198.26525 
L 316.510373 124.451355 
L 317.160984 294.022001 
L 317.811594 61.668216 
L 318.462204 74.341069 
L 319.112815 153.859254 
L 319.763425 96.360802 
L 320.414035 276.91909 
L 321.064646 180.298358 
L 321.715256 278.242994 
L 322.365866 194.667961 
L 323.016477 287.038378 
L 323.667087 260.028348 
L 324.317697 171.935814 
L 324.968308 208.781552 
L 325.618918 149.141729 
L 326.269528 266.306723 
L 326.920138 152.772416 
L 327.570749 146.737909 
L 329.52258 270.954051 
L 330.17319 101.637353 
L 330.8238 135.356776 
L 331.474411 103.576148 
L 332.125021 282.479221 
L 332.775631 139.561063 
L 333.426242 61.527093 
L 334.076852 220.568686 
L 334.727462 93.173036 
L 335.378073 76.428031 
L 336.028683 86.158929 
L 336.679293 283.303975 
L 337.329903 256.319084 
L 337.980514 173.378373 
L 338.631124 129.631112 
L 339.281734 246.907716 
L 339.932345 56.241191 
L 340.582955 214.563326 
L 341.233565 239.318675 
L 341.884176 238.866281 
L 342.534786 158.437236 
L 343.185396 182.994624 
L 343.836007 215.793958 
L 344.486617 277.497061 
L 345.137227 294.320763 
L 345.787837 104.564735 
L 346.438448 89.954057 
L 347.089058 292.301448 
L 347.739668 164.899726 
L 348.390279 237.238756 
L 349.040889 157.601917 
L 349.691499 263.061268 
L 350.34211 261.548877 
L 350.99272 73.171404 
L 351.64333 277.31914 
L 352.293941 53.789764 
L 352.944551 181.714198 
L 353.595161 144.37526 
L 354.245772 156.26271 
L 354.896382 192.917531 
L 355.546992 79.633894 
L 356.197602 179.545866 
L 356.848213 146.277379 
L 357.498823 138.769586 
L 358.149433 208.076668 
L 358.800044 170.859421 
L 359.450654 252.93943 
L 360.101264 106.430418 
L 360.751875 111.81445 
L 361.402485 223.524365 
L 362.053095 239.795722 
L 362.703706 279.504839 
L 363.354316 64.632397 
L 364.004926 223.441416 
L 364.655537 257.918675 
L 365.306147 167.191935 
L 365.956757 155.821125 
L 366.607367 114.592573 
L 367.257978 97.842832 
L 367.908588 265.701062 
L 368.559198 291.329378 
L 369.209809 125.138994 
L 369.860419 123.750965 
L 370.511029 139.007017 
L 371.16164 159.571439 
L 371.81225 113.105321 
L 372.46286 88.192211 
L 373.113471 148.019186 
L 373.764081 130.60561 
L 374.414691 242.545304 
L 375.065302 164.57716 
L 375.715912 238.020031 
L 376.366522 192.923847 
L 377.017132 133.865395 
L 377.667743 166.963613 
L 378.318353 82.52387 
L 378.968963 155.612963 
L 379.619574 158.863033 
L 380.270184 141.748826 
L 380.920794 259.901192 
L 381.571405 219.918453 
L 382.222015 229.904027 
L 382.872625 128.305871 
L 383.523236 232.164417 
L 384.173846 252.778025 
L 384.824456 54.079296 
L 385.475066 263.112277 
L 386.125677 73.584206 
L 386.776287 212.239783 
L 387.426897 224.330537 
L 388.077508 59.982882 
L 388.728118 222.150667 
L 389.378728 295.488 
L 390.029339 190.870769 
L 390.679949 54.611481 
L 391.330559 217.338048 
L 391.98117 85.450888 
L 392.63178 160.403114 
L 393.28239 172.579124 
L 393.933001 55.895186 
L 394.583611 181.123232 
L 395.234221 181.623962 
L 395.884831 64.483137 
L 396.535442 272.105499 
L 397.186052 130.932062 
L 397.836662 105.13299 
L 398.487273 57.022102 
L 398.487273 57.022102 
" clip-path="url(#pd9aeacc401)" style="fill: none; stroke: #1f77b4; stroke-width: 3; stroke-linecap: square"/>
   </g>
  </g>
 </g>
 <defs>
  <clipPath id="pd9aeacc401">
   <rect x="57.6" y="41.472" width="357.12" height="266.112"/>
  </clipPath>
 </defs>
</svg>
