<?xml version="1.0" encoding="utf-8" standalone="no"?>
<!DOCTYPE svg PUBLIC "-//W3C//DTD SVG 1.1//EN"
  "http://www.w3.org/Graphics/SVG/1.1/DTD/svg11.dtd">
<svg xmlns:xlink="http://www.w3.org/1999/xlink" width="460.8pt" height="345.6pt" viewBox="0 0 460.8 345.6" xmlns="http://www.w3.org/2000/svg" version="1.1">
 <metadata>
  <rdf:RDF xmlns:dc="http://purl.org/dc/elements/1.1/" xmlns:cc="http://creativecommons.org/ns#" xmlns:rdf="http://www.w3.org/1999/02/22-rdf-syntax-ns#">
   <cc:Work>
    <dc:type rdf:resource="http://purl.org/dc/dcmitype/StillImage"/>
    <dc:date>2023-09-10T21:48:57.938664</dc:date>
    <dc:format>image/svg+xml</dc:format>
    <dc:creator>
     <cc:Agent>
      <dc:title>Matplotlib v3.7.2, https://matplotlib.org/</dc:title>
     </cc:Agent>
    </dc:creator>
   </cc:Work>
  </rdf:RDF>
 </metadata>
 <defs>
  <style type="text/css">*{stroke-linejoin: round; stroke-linecap: butt}</style>
 </defs>
 <g id="figure_1">
  <g id="axes_1">
   <g id="line2d_1">
    <path d="M 73.832727 174.528 
L 77.988721 122.448461 
L 80.131655 98.355821 
L 81.884965 81.028829 
L 83.378525 68.369253 
L 84.677274 59.152085 
L 85.813678 52.575684 
L 86.820208 47.979058 
L 87.696863 44.951682 
L 88.443643 43.107199 
L 89.093017 42.06066 
L 89.612516 41.599782 
L 90.067078 41.472002 
L 90.489171 41.583828 
L 90.943733 41.952246 
L 91.463232 42.687277 
L 92.080137 43.992569 
L 92.794449 46.084551 
L 93.606166 49.205742 
L 94.51529 53.617863 
L 95.554289 59.803055 
L 96.723162 68.142857 
L 98.054379 79.290131 
L 99.612876 94.331091 
L 101.431123 114.153503 
L 103.736401 141.88068 
L 112.340607 247.969142 
L 114.126386 265.953064 
L 115.652415 279.181654 
L 116.983631 288.869965 
L 118.152505 295.819146 
L 119.159034 300.56383 
L 120.035689 303.724173 
L 120.814938 305.753866 
L 121.464312 306.87593 
L 122.01628 307.419047 
L 122.470842 307.581752 
L 122.892935 307.502361 
L 123.347497 307.168816 
L 123.866996 306.473482 
L 124.451433 305.292867 
L 125.133276 303.387359 
L 125.912524 300.523575 
L 126.821648 296.278825 
L 127.860646 290.276878 
L 129.02952 282.130777 
L 130.360736 271.185022 
L 131.886765 256.679143 
L 133.672544 237.458604 
L 135.912884 210.76899 
L 139.77666 161.505733 
L 143.120936 120.073378 
L 145.231402 96.583683 
L 146.952243 79.787782 
L 148.413334 67.568157 
L 149.712082 58.491598 
L 150.848487 52.046856 
L 151.822548 47.697987 
L 152.699203 44.745821 
L 153.445983 42.966594 
L 154.062888 42.014465 
L 154.582388 41.578746 
L 155.03695 41.473026 
L 155.459043 41.605336 
L 155.913604 41.995773 
L 156.433104 42.755861 
L 157.050009 44.09068 
L 157.76432 46.216406 
L 158.576038 49.375171 
L 159.51763 54.004648 
L 160.589097 60.486438 
L 161.790439 69.206622 
L 163.154125 80.820851 
L 164.712623 96.076335 
L 166.563339 116.474532 
L 168.966022 145.622284 
L 176.855917 243.44888 
L 178.706633 262.620754 
L 180.265131 276.602452 
L 181.628816 286.945204 
L 182.830158 294.442273 
L 183.869156 299.623958 
L 184.77828 303.122972 
L 185.557529 305.331329 
L 186.239372 306.654146 
L 186.823808 307.3305 
L 187.310839 307.5698 
L 187.732932 307.538213 
L 188.155025 307.284757 
L 188.642055 306.717182 
L 189.226492 305.648761 
L 189.875866 303.970091 
L 190.655115 301.281957 
L 191.53177 297.397642 
L 192.5383 291.850122 
L 193.674704 284.25333 
L 194.940984 274.23159 
L 196.402075 260.820896 
L 198.122916 242.839988 
L 200.200913 218.658175 
L 203.252971 180.211744 
L 207.895995 121.910392 
L 210.03893 97.876687 
L 211.79224 80.613327 
L 213.2858 68.017448 
L 214.584548 58.861683 
L 215.720952 52.342802 
L 216.727482 47.799494 
L 217.604137 44.819963 
L 218.350917 43.016996 
L 218.967823 42.045052 
L 219.487322 41.59256 
L 219.941884 41.472133 
L 220.363977 41.590788 
L 220.818539 41.966546 
L 221.338038 42.70993 
L 221.954943 44.025067 
L 222.669255 46.1283 
L 223.480972 49.262021 
L 224.422564 53.863332 
L 225.461563 60.100612 
L 226.662905 68.748466 
L 228.02659 80.288135 
L 229.585088 95.469819 
L 231.435804 115.798377 
L 233.806019 144.480834 
L 241.923195 244.944737 
L 243.77391 263.928918 
L 245.332408 277.719817 
L 246.696094 287.874651 
L 247.864967 295.015904 
L 248.903965 300.07339 
L 249.813089 303.459963 
L 250.592338 305.569833 
L 251.241712 306.759531 
L 251.79368 307.360508 
L 252.248242 307.570995 
L 252.670335 307.535994 
L 253.092428 307.279126 
L 253.579458 306.707628 
L 254.163895 305.634527 
L 254.813269 303.950711 
L 255.592518 301.256506 
L 256.469173 297.365534 
L 257.475702 291.810659 
L 258.612107 284.206016 
L 259.910855 273.898688 
L 261.371947 260.438433 
L 263.092788 242.409007 
L 265.203253 217.789477 
L 268.28778 178.874942 
L 272.80093 122.217736 
L 274.943864 98.150297 
L 276.697174 80.850535 
L 278.190734 68.218228 
L 279.489482 59.027354 
L 280.625887 52.475588 
L 281.632416 47.901802 
L 282.509071 44.894924 
L 283.255851 43.068229 
L 283.872757 42.076476 
L 284.392256 41.607214 
L 284.846818 41.47208 
L 285.268911 41.577079 
L 285.723473 41.938157 
L 286.242972 42.664832 
L 286.859877 43.960278 
L 287.574189 46.041005 
L 288.385906 49.149662 
L 289.29503 53.548158 
L 290.334028 59.718446 
L 291.502902 68.042509 
L 292.834118 79.173431 
L 294.360147 93.864855 
L 296.178395 113.632539 
L 298.483672 141.31362 
L 307.217753 248.873042 
L 309.003532 266.73971 
L 310.529561 279.849378 
L 311.828309 289.210573 
L 312.997182 296.092604 
L 314.003712 300.776631 
L 314.880367 303.88248 
L 315.627147 305.795092 
L 316.276521 306.901537 
L 316.828489 307.431297 
L 317.28305 307.582974 
L 317.705144 307.49334 
L 318.159705 307.14878 
L 318.679205 306.440908 
L 319.263641 305.246288 
L 319.945484 303.32463 
L 320.724733 300.442729 
L 321.633856 296.17743 
L 322.672855 290.152968 
L 323.841728 281.983043 
L 325.172945 271.012472 
L 326.698974 256.481685 
L 328.484752 237.23749 
L 330.725093 210.52758 
L 334.621337 160.840232 
L 337.933145 119.844614 
L 340.04361 96.380536 
L 341.764451 79.611831 
L 343.225543 67.419152 
L 344.524291 58.369061 
L 345.660696 51.949078 
L 346.634757 47.622383 
L 347.478943 44.782789 
L 348.225723 42.991691 
L 348.842628 42.029654 
L 349.362127 41.585548 
L 349.816689 41.472474 
L 350.238782 41.597957 
L 350.693344 41.981055 
L 351.212843 42.732791 
L 351.829749 44.05777 
L 352.54406 46.172252 
L 353.355778 49.318497 
L 354.29737 53.933895 
L 355.336369 60.186035 
L 356.53771 68.849987 
L 357.901396 80.406257 
L 359.459894 95.604382 
L 361.31061 115.948472 
L 363.680825 144.643758 
L 371.765531 244.731788 
L 373.616247 263.742985 
L 375.174745 277.561289 
L 376.538431 287.743078 
L 377.707304 294.909274 
L 378.746302 299.990087 
L 379.655426 303.397769 
L 380.434675 305.526122 
L 381.084049 306.731416 
L 381.636017 307.34574 
L 382.123047 307.573228 
L 382.54514 307.531397 
L 382.967233 307.267708 
L 383.454264 306.688363 
L 384.038701 305.605904 
L 384.720543 303.813623 
L 385.499792 301.076942 
L 386.376447 297.139418 
L 387.382977 291.533119 
L 388.519381 283.873603 
L 389.818129 273.508517 
L 391.279221 259.990682 
L 393.000062 241.904976 
L 395.110528 217.235591 
L 398.259992 177.454111 
L 398.487273 174.528 
L 398.487273 174.528 
" clip-path="url(#p160ff4db47)" style="fill: none; stroke: #1f77b4; stroke-width: 2; stroke-linecap: square"/>
   </g>
   <g id="line2d_2">
    <path d="M 73.832727 174.528 
L 77.988721 122.448461 
L 80.131655 98.355821 
L 81.884965 81.028829 
L 83.378525 68.369253 
L 84.677274 59.152085 
L 85.813678 52.575684 
L 86.820208 47.979058 
L 87.696863 44.951682 
L 88.443643 43.107199 
L 89.093017 42.06066 
L 89.612516 41.599782 
L 90.067078 41.472002 
L 90.489171 41.583828 
L 90.943733 41.952246 
L 91.463232 42.687277 
L 92.080137 43.992569 
L 92.794449 46.084551 
L 93.606166 49.205742 
L 94.51529 53.617863 
L 95.554289 59.803055 
L 96.723162 68.142857 
L 98.054379 79.290131 
L 99.612876 94.331091 
L 101.431123 114.153503 
L 103.736401 141.88068 
L 112.340607 247.969142 
L 114.126386 265.953064 
L 115.652415 279.181654 
L 116.983631 288.869965 
L 118.152505 295.819146 
L 119.159034 300.56383 
L 120.035689 303.724173 
L 120.814938 305.753866 
L 121.464312 306.87593 
L 122.01628 307.419047 
L 122.470842 307.581752 
L 122.892935 307.502361 
L 123.347497 307.168816 
L 123.866996 306.473482 
L 124.451433 305.292867 
L 125.133276 303.387359 
L 125.912524 300.523575 
L 126.821648 296.278825 
L 127.860646 290.276878 
L 129.02952 282.130777 
L 130.360736 271.185022 
L 131.886765 256.679143 
L 133.672544 237.458604 
L 135.912884 210.76899 
L 139.77666 161.505733 
L 143.120936 120.073378 
L 145.231402 96.583683 
L 146.952243 79.787782 
L 148.413334 67.568157 
L 149.712082 58.491598 
L 150.848487 52.046856 
L 151.822548 47.697987 
L 152.699203 44.745821 
L 153.445983 42.966594 
L 154.062888 42.014465 
L 154.582388 41.578746 
L 155.03695 41.473026 
L 155.459043 41.605336 
L 155.913604 41.995773 
L 156.433104 42.755861 
L 157.050009 44.09068 
L 157.76432 46.216406 
L 158.576038 49.375171 
L 159.51763 54.004648 
L 160.589097 60.486438 
L 161.790439 69.206622 
L 163.154125 80.820851 
L 164.712623 96.076335 
L 166.563339 116.474532 
L 168.966022 145.622284 
L 176.855917 243.44888 
L 178.706633 262.620754 
L 180.265131 276.602452 
L 181.628816 286.945204 
L 182.830158 294.442273 
L 183.869156 299.623958 
L 184.77828 303.122972 
L 185.557529 305.331329 
L 186.239372 306.654146 
L 186.823808 307.3305 
L 187.310839 307.5698 
L 187.732932 307.538213 
L 188.155025 307.284757 
L 188.642055 306.717182 
L 189.226492 305.648761 
L 189.875866 303.970091 
L 190.655115 301.281957 
L 191.53177 297.397642 
L 192.5383 291.850122 
L 193.674704 284.25333 
L 194.940984 274.23159 
L 196.402075 260.820896 
L 198.122916 242.839988 
L 200.200913 218.658175 
L 203.252971 180.211744 
L 207.895995 121.910392 
L 210.03893 97.876687 
L 211.79224 80.613327 
L 213.2858 68.017448 
L 214.584548 58.861683 
L 215.720952 52.342802 
L 216.727482 47.799494 
L 217.604137 44.819963 
L 218.350917 43.016996 
L 218.967823 42.045052 
L 219.487322 41.59256 
L 219.941884 41.472133 
L 220.363977 41.590788 
L 220.818539 41.966546 
L 221.338038 42.70993 
L 221.954943 44.025067 
L 222.669255 46.1283 
L 223.480972 49.262021 
L 224.422564 53.863332 
L 225.461563 60.100612 
L 226.662905 68.748466 
L 228.02659 80.288135 
L 229.585088 95.469819 
L 231.435804 115.798377 
L 233.806019 144.480834 
L 241.923195 244.944737 
L 243.77391 263.928918 
L 245.332408 277.719817 
L 246.696094 287.874651 
L 247.864967 295.015904 
L 248.903965 300.07339 
L 249.813089 303.459963 
L 250.592338 305.569833 
L 251.241712 306.759531 
L 251.79368 307.360508 
L 252.248242 307.570995 
L 252.670335 307.535994 
L 253.092428 307.279126 
L 253.579458 306.707628 
L 254.163895 305.634527 
L 254.813269 303.950711 
L 255.592518 301.256506 
L 256.469173 297.365534 
L 257.475702 291.810659 
L 258.612107 284.206016 
L 259.910855 273.898688 
L 261.371947 260.438433 
L 263.092788 242.409007 
L 265.203253 217.789477 
L 268.28778 178.874942 
L 272.80093 122.217736 
L 274.943864 98.150297 
L 276.697174 80.850535 
L 278.190734 68.218228 
L 279.489482 59.027354 
L 280.625887 52.475588 
L 281.632416 47.901802 
L 282.509071 44.894924 
L 283.255851 43.068229 
L 283.872757 42.076476 
L 284.392256 41.607214 
L 284.846818 41.47208 
L 285.268911 41.577079 
L 285.723473 41.938157 
L 286.242972 42.664832 
L 286.859877 43.960278 
L 287.574189 46.041005 
L 288.385906 49.149662 
L 289.29503 53.548158 
L 290.334028 59.718446 
L 291.502902 68.042509 
L 292.834118 79.173431 
L 294.360147 93.864855 
L 296.178395 113.632539 
L 298.483672 141.31362 
L 307.217753 248.873042 
L 309.003532 266.73971 
L 310.529561 279.849378 
L 311.828309 289.210573 
L 312.997182 296.092604 
L 314.003712 300.776631 
L 314.880367 303.88248 
L 315.627147 305.795092 
L 316.276521 306.901537 
L 316.828489 307.431297 
L 317.28305 307.582974 
L 317.705144 307.49334 
L 318.159705 307.14878 
L 318.679205 306.440908 
L 319.263641 305.246288 
L 319.945484 303.32463 
L 320.724733 300.442729 
L 321.633856 296.17743 
L 322.672855 290.152968 
L 323.841728 281.983043 
L 325.172945 271.012472 
L 326.698974 256.481685 
L 328.484752 237.23749 
L 330.725093 210.52758 
L 334.621337 160.840232 
L 337.933145 119.844614 
L 340.04361 96.380536 
L 341.764451 79.611831 
L 343.225543 67.419152 
L 344.524291 58.369061 
L 345.660696 51.949078 
L 346.634757 47.622383 
L 347.478943 44.782789 
L 348.225723 42.991691 
L 348.842628 42.029654 
L 349.362127 41.585548 
L 349.816689 41.472474 
L 350.238782 41.597957 
L 350.693344 41.981055 
L 351.212843 42.732791 
L 351.829749 44.05777 
L 352.54406 46.172252 
L 353.355778 49.318497 
L 354.29737 53.933895 
L 355.336369 60.186035 
L 356.53771 68.849987 
L 357.901396 80.406257 
L 359.459894 95.604382 
L 361.31061 115.948472 
L 363.680825 144.643758 
L 371.765531 244.731788 
L 373.616247 263.742985 
L 375.174745 277.561289 
L 376.538431 287.743078 
L 377.707304 294.909274 
L 378.746302 299.990087 
L 379.655426 303.397769 
L 380.434675 305.526122 
L 381.084049 306.731416 
L 381.636017 307.34574 
L 382.123047 307.573228 
L 382.54514 307.531397 
L 382.967233 307.267708 
L 383.454264 306.688363 
L 384.038701 305.605904 
L 384.720543 303.813623 
L 385.499792 301.076942 
L 386.376447 297.139418 
L 387.382977 291.533119 
L 388.519381 283.873603 
L 389.818129 273.508517 
L 391.279221 259.990682 
L 393.000062 241.904976 
L 395.110528 217.235591 
L 398.259992 177.454111 
L 398.487273 174.528 
L 398.487273 174.528 
" clip-path="url(#p160ff4db47)" style="fill: none; stroke: #1f77b4; stroke-width: 3; stroke-linecap: square"/>
   </g>
  </g>
 </g>
 <defs>
  <clipPath id="p160ff4db47">
   <rect x="57.6" y="41.472" width="357.12" height="266.112"/>
  </clipPath>
 </defs>
</svg>
