<?xml version="1.0" encoding="utf-8" standalone="no"?>
<!DOCTYPE svg PUBLIC "-//W3C//DTD SVG 1.1//EN"
  "http://www.w3.org/Graphics/SVG/1.1/DTD/svg11.dtd">
<svg xmlns:xlink="http://www.w3.org/1999/xlink" width="460.8pt" height="345.6pt" viewBox="0 0 460.8 345.6" xmlns="http://www.w3.org/2000/svg" version="1.1">
 <metadata>
  <rdf:RDF xmlns:dc="http://purl.org/dc/elements/1.1/" xmlns:cc="http://creativecommons.org/ns#" xmlns:rdf="http://www.w3.org/1999/02/22-rdf-syntax-ns#">
   <cc:Work>
    <dc:type rdf:resource="http://purl.org/dc/dcmitype/StillImage"/>
    <dc:date>2023-09-10T21:38:44.540599</dc:date>
    <dc:format>image/svg+xml</dc:format>
    <dc:creator>
     <cc:Agent>
      <dc:title>Matplotlib v3.7.2, https://matplotlib.org/</dc:title>
     </cc:Agent>
    </dc:creator>
   </cc:Work>
  </rdf:RDF>
 </metadata>
 <defs>
  <style type="text/css">*{stroke-linejoin: round; stroke-linecap: butt}</style>
 </defs>
 <g id="figure_1">
  <g id="axes_1">
   <g id="line2d_1">
    <path d="M 73.832727 254.191639 
L 76.00433 214.105556 
L 78.175932 180.770675 
L 80.347534 153.590892 
L 81.433335 142.122878 
L 82.519137 131.970098 
L 83.604938 123.058039 
L 84.690739 115.312187 
L 85.77654 108.65803 
L 86.862341 103.021054 
L 87.948142 98.326746 
L 89.033943 94.500592 
L 90.119745 91.468079 
L 91.205546 89.154694 
L 92.291347 87.485924 
L 93.377148 86.387255 
L 94.462949 85.784173 
L 95.54875 85.602167 
L 96.634552 85.766721 
L 97.720353 86.203324 
L 99.891955 87.59462 
L 102.063557 89.179948 
L 103.149358 89.859092 
L 104.23516 90.363203 
L 105.320961 90.617769 
L 106.406762 90.548277 
L 107.492563 90.080214 
L 108.578364 89.143775 
L 109.664165 87.765187 
L 110.749967 86.060336 
L 115.093171 78.364632 
L 116.178972 76.818219 
L 117.264773 75.661447 
L 118.350575 75.013633 
L 119.436376 74.994094 
L 120.522177 75.722148 
L 121.607978 77.317112 
L 122.693779 79.898303 
L 123.77958 83.58504 
L 124.865382 88.49664 
L 125.951183 94.730374 
L 127.036984 102.214957 
L 128.122785 110.8013 
L 130.294387 130.681235 
L 132.46599 153.174117 
L 140.066598 235.208029 
L 142.2382 254.65792 
L 143.324001 262.994256 
L 144.409802 270.317866 
L 145.495604 276.600965 
L 146.581405 281.815769 
L 147.667206 285.934492 
L 148.753007 288.92935 
L 149.838808 290.772557 
L 150.924609 291.436329 
L 152.01041 290.89288 
L 153.096212 289.114427 
L 154.182013 286.073183 
L 155.267814 281.741364 
L 156.353615 276.091184 
L 157.439416 269.09486 
L 158.525217 260.724606 
L 159.611019 250.954151 
L 161.782621 227.689436 
L 163.954223 201.156236 
L 168.297428 146.6251 
L 170.46903 122.797522 
L 171.554831 112.655497 
L 172.640632 104.042177 
L 173.726434 97.21821 
L 174.812235 92.444243 
L 175.898036 89.980924 
L 176.983837 90.072222 
L 178.069638 92.69048 
L 179.155439 97.587056 
L 180.24124 104.506894 
L 181.327042 113.194935 
L 182.412843 123.396122 
L 184.584445 147.317703 
L 187.841849 188.172227 
L 191.099252 228.871949 
L 193.270854 252.518327 
L 194.356656 262.555682 
L 195.442457 271.260305 
L 196.528258 278.631865 
L 197.614059 284.6702 
L 198.69986 289.375144 
L 199.785661 292.746535 
L 200.871462 294.784208 
L 201.957264 295.488 
L 203.043065 294.857747 
L 204.128866 292.893284 
L 205.214667 289.594449 
L 206.300468 284.961078 
L 207.386269 278.993006 
L 208.472071 271.690071 
L 209.557872 263.052107 
L 210.643673 253.079002 
L 212.815275 229.524334 
L 214.986877 202.781685 
L 219.330082 147.915251 
L 221.501684 123.882871 
L 222.587486 113.611885 
L 223.673287 104.845318 
L 224.759088 97.838884 
L 225.844889 92.848295 
L 226.93069 90.129264 
L 228.016491 89.933181 
L 229.102292 92.307222 
L 230.188094 97.010223 
L 231.273895 103.779244 
L 232.359696 112.351345 
L 233.445497 122.463586 
L 235.617099 146.256724 
L 238.874503 186.923969 
L 242.131906 227.25369 
L 244.303509 250.446787 
L 245.38931 260.159063 
L 246.475111 268.447684 
L 247.560912 275.346457 
L 248.646713 280.891683 
L 249.732514 285.119664 
L 250.818316 288.066702 
L 251.904117 289.769097 
L 252.989918 290.263153 
L 254.075719 289.585169 
L 255.16152 287.771449 
L 256.247321 284.858293 
L 257.333123 280.882003 
L 258.418924 275.87888 
L 259.504725 269.885227 
L 260.590526 262.937345 
L 261.676327 255.071534 
L 263.847929 236.823657 
L 266.019532 215.956875 
L 269.276935 181.806575 
L 273.62014 135.89743 
L 275.791742 114.90118 
L 277.963344 96.466307 
L 279.049146 88.503645 
L 280.134947 81.504031 
L 281.220748 75.478518 
L 282.306549 70.426366 
L 283.39235 66.346835 
L 284.478151 63.239185 
L 285.563953 61.102677 
L 286.649754 59.936571 
L 287.735555 59.740127 
L 288.821356 60.512606 
L 289.907157 62.253269 
L 290.992958 64.961374 
L 292.07876 68.636184 
L 293.164561 73.276957 
L 294.250362 78.882955 
L 295.336163 85.453437 
L 296.421964 92.986246 
L 298.593566 110.674682 
L 300.765169 131.104877 
L 304.022572 164.8824 
L 309.451578 221.879194 
L 311.62318 242.245145 
L 313.794783 259.847275 
L 314.880584 267.372388 
L 315.966385 273.976037 
L 317.052186 279.611565 
L 318.137987 284.232313 
L 319.223788 287.791626 
L 320.30959 290.242846 
L 321.395391 291.539315 
L 322.481192 291.634378 
L 323.566993 290.481377 
L 324.652794 288.033655 
L 325.738595 284.244554 
L 326.824396 279.067418 
L 327.910198 272.45559 
L 328.995999 264.362412 
L 330.0818 254.741228 
L 331.167601 243.594705 
L 333.339203 217.728342 
L 339.85401 133.243645 
L 340.939811 121.323448 
L 342.025613 110.824305 
L 343.111414 102.047618 
L 344.197215 95.294792 
L 345.283016 90.86723 
L 346.368817 89.066335 
L 347.454618 90.192422 
L 348.54042 94.34303 
L 349.626221 101.176404 
L 350.712022 110.293335 
L 351.797823 121.294612 
L 353.969425 147.353365 
L 359.398431 217.531594 
L 360.484232 229.236075 
L 361.570033 239.23201 
L 362.655835 247.12019 
L 363.741636 252.501404 
L 364.827437 254.988516 
L 365.913238 254.509693 
L 366.999039 251.330812 
L 368.08484 245.734315 
L 369.170642 238.002643 
L 370.256443 228.418237 
L 371.342244 217.263539 
L 373.513846 191.373029 
L 376.77125 147.821101 
L 378.942852 118.937522 
L 381.114454 92.810892 
L 382.200255 81.487536 
L 383.286057 71.700742 
L 384.371858 63.732949 
L 385.457659 57.866601 
L 386.54346 54.384137 
L 387.629261 53.568 
L 388.715062 55.70063 
L 389.800863 61.064469 
L 390.886665 69.941957 
L 391.972466 82.615537 
L 393.058267 99.367649 
L 394.144068 120.480735 
L 395.229869 146.237235 
L 396.31567 176.919592 
L 397.401472 212.810246 
L 398.487273 254.191639 
L 398.487273 254.191639 
" clip-path="url(#pf767ed0c60)" style="fill: none; stroke: #1f77b4; stroke-width: 3; stroke-linecap: square"/>
   </g>
  </g>
 </g>
 <defs>
  <clipPath id="pf767ed0c60">
   <rect x="57.6" y="41.472" width="357.12" height="266.112"/>
  </clipPath>
 </defs>
</svg>
